<?xml version="1.0" standalone="no"?>
<!DOCTYPE svg PUBLIC "-//W3C//DTD SVG 20010904//EN"
 "http://www.w3.org/TR/2001/REC-SVG-20010904/DTD/svg10.dtd">
<svg version="1.0" xmlns="http://www.w3.org/2000/svg"
 width="1000.000000pt" height="1000.000000pt" viewBox="0 0 1000.000000 1000.000000"
 preserveAspectRatio="xMidYMid meet">
<metadata>
Created by potrace 1.14, written by Peter Selinger 2001-2017
</metadata>
<g transform="translate(0.000000,1000.000000) scale(0.100000,-0.100000)"
fill="#000000" stroke="none">
<path d="M2907 8264 c-1 -1 -39 -4 -84 -7 -157 -11 -283 -61 -366 -143 -46
-46 -111 -160 -123 -214 -26 -127 -29 -268 -7 -374 54 -258 246 -398 553 -405
l25 -1 -1 -1848 c-1 -1016 -4 -1874 -8 -1907 -28 -270 -181 -432 -441 -470
-27 -4 -144 -8 -260 -10 -336 -5 -386 -7 -455 -23 -248 -55 -377 -232 -384
-528 -4 -166 18 -277 77 -376 30 -51 88 -111 137 -143 43 -27 140 -64 194 -73
56 -10 762 -9 859 1 67 6 163 22 268 42 55 10 207 57 279 86 173 69 312 161
446 294 106 105 164 184 232 315 111 213 171 439 200 745 9 100 9 4554 0 4615
-17 116 -66 217 -138 287 -59 58 -127 94 -231 122 -68 18 -101 20 -422 18
-192 -1 -349 -3 -350 -3z"/>
<path d="M5899 8266 c-2 -2 -32 -7 -66 -10 -115 -12 -222 -31 -347 -61 -230
-55 -501 -206 -656 -365 -201 -206 -347 -525 -396 -865 -3 -22 -7 -51 -10 -65
-15 -87 -19 -327 -19 -1145 1 -506 4 -954 8 -995 49 -480 184 -808 437 -1060
235 -235 551 -370 970 -416 36 -4 79 -8 95 -10 17 -2 532 -4 1145 -5 1010 0
1122 1 1190 16 268 60 395 237 394 550 -1 308 -109 483 -344 556 -91 28 -150
30 -1275 34 -544 2 -1003 6 -1020 9 -136 25 -214 60 -286 128 -62 57 -92 107
-126 203 l-28 80 0 905 c0 498 3 924 7 947 29 165 127 307 254 367 128 61 89
59 1254 61 586 1 1085 5 1110 9 218 35 359 150 420 341 30 94 37 298 14 400
-36 158 -119 268 -249 330 -38 19 -81 36 -95 39 -14 2 -47 9 -75 15 -46 9
-2296 16 -2306 7z"/>
<path d="M6450 2869 c-218 -23 -412 -194 -481 -423 -29 -94 -22 -249 16 -341
70 -174 193 -292 363 -350 94 -32 259 -33 352 -1 146 50 266 154 338 294 24
45 41 82 38 82 -2 0 2 20 9 43 16 53 13 214 -4 277 -37 128 -134 259 -251 337
-96 64 -247 97 -380 82z"/>
</g>
</svg>
